<svg id="visual" viewBox="0 0 2560 300" width="2560" height="300" xmlns="http://www.w3.org/2000/svg" xmlns:xlink="http://www.w3.org/1999/xlink" version="1.1"><rect x="0" y="0" width="2560" height="300" fill="#002401"></rect><path d="M0 173L233 202L465 168L698 178L931 180L1164 160L1396 171L1629 154L1862 176L2095 202L2327 179L2560 160L2560 301L2327 301L2095 301L1862 301L1629 301L1396 301L1164 301L931 301L698 301L465 301L233 301L0 301Z" fill="#489157"></path><path d="M0 191L233 233L465 206L698 196L931 200L1164 218L1396 215L1629 210L1862 221L2095 200L2327 213L2560 224L2560 301L2327 301L2095 301L1862 301L1629 301L1396 301L1164 301L931 301L698 301L465 301L233 301L0 301Z" fill="#60a56e"></path><path d="M0 227L233 246L465 253L698 239L931 228L1164 241L1396 243L1629 215L1862 233L2095 254L2327 229L2560 245L2560 301L2327 301L2095 301L1862 301L1629 301L1396 301L1164 301L931 301L698 301L465 301L233 301L0 301Z" fill="#78b985"></path><path d="M0 254L233 258L465 269L698 273L931 250L1164 280L1396 262L1629 248L1862 271L2095 255L2327 271L2560 275L2560 301L2327 301L2095 301L1862 301L1629 301L1396 301L1164 301L931 301L698 301L465 301L233 301L0 301Z" fill="#90cd9c"></path></svg>