<svg id="visual" viewBox="0 0 2560 400" width="2560" height="400" xmlns="http://www.w3.org/2000/svg" xmlns:xlink="http://www.w3.org/1999/xlink" version="1.1"><rect x="0" y="0" width="2560" height="400" fill="#002401"></rect><path d="M0 284L366 300L731 277L1097 258L1463 302L1829 284L2194 257L2560 290L2560 401L2194 401L1829 401L1463 401L1097 401L731 401L366 401L0 401Z" fill="#489157"></path><path d="M0 294L366 298L731 296L1097 313L1463 274L1829 286L2194 269L2560 300L2560 401L2194 401L1829 401L1463 401L1097 401L731 401L366 401L0 401Z" fill="#60a56e"></path><path d="M0 340L366 334L731 315L1097 336L1463 349L1829 343L2194 313L2560 305L2560 401L2194 401L1829 401L1463 401L1097 401L731 401L366 401L0 401Z" fill="#78b985"></path><path d="M0 373L366 341L731 351L1097 377L1463 358L1829 374L2194 378L2560 345L2560 401L2194 401L1829 401L1463 401L1097 401L731 401L366 401L0 401Z" fill="#90cd9c"></path></svg>