<svg id="visual" viewBox="0 0 2560 1080" width="2560" height="1080" xmlns="http://www.w3.org/2000/svg" xmlns:xlink="http://www.w3.org/1999/xlink" version="1.1"><path d="M0 932L38.8 930.2C77.7 928.3 155.3 924.7 232.8 912C310.3 899.3 387.7 877.7 465.2 883.8C542.7 890 620.3 924 698 940.8C775.7 957.7 853.3 957.3 931 941.3C1008.7 925.3 1086.3 893.7 1163.8 897.5C1241.3 901.3 1318.7 940.7 1396.2 949C1473.7 957.3 1551.3 934.7 1629 922.5C1706.7 910.3 1784.3 908.7 1862 915.8C1939.7 923 2017.3 939 2094.8 930.5C2172.3 922 2249.7 889 2327.2 884.8C2404.7 880.7 2482.3 905.3 2521.2 917.7L2560 930L2560 1081L2521.2 1081C2482.3 1081 2404.7 1081 2327.2 1081C2249.7 1081 2172.3 1081 2094.8 1081C2017.3 1081 1939.7 1081 1862 1081C1784.3 1081 1706.7 1081 1629 1081C1551.3 1081 1473.7 1081 1396.2 1081C1318.7 1081 1241.3 1081 1163.8 1081C1086.3 1081 1008.7 1081 931 1081C853.3 1081 775.7 1081 698 1081C620.3 1081 542.7 1081 465.2 1081C387.7 1081 310.3 1081 232.8 1081C155.3 1081 77.7 1081 38.8 1081L0 1081Z" fill="#002401" stroke-linecap="round" stroke-linejoin="miter"></path></svg>