<svg id="visual" viewBox="0 0 2560 1080" width="2560" height="1080" xmlns="http://www.w3.org/2000/svg" xmlns:xlink="http://www.w3.org/1999/xlink" version="1.1"><path d="M0 427L61 443.3C122 459.7 244 492.3 365.8 515.3C487.7 538.3 609.3 551.7 731.2 554.3C853 557 975 549 1097 528.7C1219 508.3 1341 475.7 1463 460.7C1585 445.7 1707 448.3 1828.8 464C1950.7 479.7 2072.3 508.3 2194.2 523.8C2316 539.3 2438 541.7 2499 542.8L2560 544L2560 0L2499 0C2438 0 2316 0 2194.2 0C2072.3 0 1950.7 0 1828.8 0C1707 0 1585 0 1463 0C1341 0 1219 0 1097 0C975 0 853 0 731.2 0C609.3 0 487.7 0 365.8 0C244 0 122 0 61 0L0 0Z" fill="#002401" stroke-linecap="round" stroke-linejoin="miter"></path></svg>