<svg id="visual" viewBox="0 0 2560 1080" width="2560" height="1080" xmlns="http://www.w3.org/2000/svg" xmlns:xlink="http://www.w3.org/1999/xlink" version="1.1"><path d="M0 486L61 503.3C122 520.7 244 555.3 365.8 555.5C487.7 555.7 609.3 521.3 731.2 516.3C853 511.3 975 535.7 1097 539.5C1219 543.3 1341 526.7 1463 526.3C1585 526 1707 542 1828.8 529.8C1950.7 517.7 2072.3 477.3 2194.2 471.2C2316 465 2438 493 2499 507L2560 521L2560 0L2499 0C2438 0 2316 0 2194.2 0C2072.3 0 1950.7 0 1828.8 0C1707 0 1585 0 1463 0C1341 0 1219 0 1097 0C975 0 853 0 731.2 0C609.3 0 487.7 0 365.8 0C244 0 122 0 61 0L0 0Z" fill="#002401" stroke-linecap="round" stroke-linejoin="miter"></path></svg>