<svg id="visual" viewBox="0 0 2560 150" width="2560" height="150" xmlns="http://www.w3.org/2000/svg" xmlns:xlink="http://www.w3.org/1999/xlink" version="1.1"><rect x="0" y="0" width="2560" height="150" fill="#002401"></rect><path d="M0 107L233 117L465 105L698 109L931 109L1164 103L1396 106L1629 101L1862 108L2095 117L2327 109L2560 103L2560 151L2327 151L2095 151L1862 151L1629 151L1396 151L1164 151L931 151L698 151L465 151L233 151L0 151Z" fill="#489157"></path><path d="M0 113L233 127L465 118L698 115L931 116L1164 122L1396 121L1629 119L1862 123L2095 116L2327 120L2560 124L2560 151L2327 151L2095 151L1862 151L1629 151L1396 151L1164 151L931 151L698 151L465 151L233 151L0 151Z" fill="#60a56e"></path><path d="M0 125L233 131L465 134L698 129L931 125L1164 130L1396 130L1629 121L1862 127L2095 134L2327 126L2560 131L2560 151L2327 151L2095 151L1862 151L1629 151L1396 151L1164 151L931 151L698 151L465 151L233 151L0 151Z" fill="#78b985"></path><path d="M0 134L233 135L465 139L698 140L931 133L1164 143L1396 137L1629 132L1862 140L2095 134L2327 140L2560 141L2560 151L2327 151L2095 151L1862 151L1629 151L1396 151L1164 151L931 151L698 151L465 151L233 151L0 151Z" fill="#90cd9c"></path></svg>